# xmcd CD database file
#
# Track frame offsets:
#	150
#	16894
#	34778
#	56308
#	72891
#	90777
#	104925
#	123636
#	139061
#	160027
#	178054
#	206112
#	220217
#	236361
#	253765
#	267031
#	281289
#	293055
#	316098
#
# Disc length: 4560 seconds
#
# Revision: 0
# Processed by: cddbd v1.5.2PL0 Copyright (c) Steve Scherf et al.
# Submitted via: CDex 1.70beta2
#
DISCID=0d11ce13
DTITLE=Rod Piazza - His Instrumentals
DYEAR=2008
DGENRE=Blues
TTITLE0=The Upsetter
TTITLE1=4811 Wadsworth
TTITLE2=Stratospheric
TTITLE3=Harpburn
TTITLE4=Ghostin'
TTITLE5=The Bounce
TTITLE6=Scary Boogie
TTITLE7=Snap Crackle Hop
TTITLE8=West Coast Midnite Blues
TTITLE9=Greasy Foot
TTITLE10=Devil's Foot
TTITLE11=Deep Fried
TTITLE12=The Teaser
TTITLE13=West Coaster
TTITLE14=Cold Chill
TTITLE15=Harpthrob
TTITLE16=Ju Ju Cocktail
TTITLE17=Eliminator
TTITLE18=Nite's End
EXTD=YEAR: 2008
EXTT0=
EXTT1=
EXTT2=
EXTT3=
EXTT4=
EXTT5=
EXTT6=
EXTT7=
EXTT8=
EXTT9=
EXTT10=
EXTT11=
EXTT12=
EXTT13=
EXTT14=
EXTT15=
EXTT16=
EXTT17=
EXTT18=
PLAYORDER=
